<svg width="38" height="24" viewBox="0 0 38 24" fill="none" xmlns="http://www.w3.org/2000/svg">
<path d="M24.4062 22.184V23.6608H2.03037C0.940799 23.6608 0.35343 23.0874 0.35343 22.0553V1.76591C0.337814 1.52992 0.37527 1.29348 0.463294 1.07238C0.551317 0.851287 0.687881 0.650632 0.863857 0.48383C1.03983 0.317028 1.25117 0.187922 1.48373 0.105141C1.7163 0.0223602 1.96474 -0.0121883 2.21245 0.00380475H35.9862C36.9964 0.00380475 37.6132 0.596768 37.6132 1.56173C37.6132 8.41251 37.6132 15.2605 37.6132 22.1057C37.6132 23.0706 36.9935 23.658 35.9803 23.6608H33.7953C33.7738 23.6627 33.7522 23.6627 33.7307 23.6608V22.2064H36.0537V1.47502H2.35342C2.27413 1.47502 2.17721 1.44985 2.11554 1.47502C2.02694 1.52392 1.95466 1.59567 1.90702 1.682C1.87472 1.73235 1.90702 1.81626 1.90702 1.88618V22.184H24.4062Z" fill="#29C2DA"/>
</svg>
