<svg width="29" height="28" viewBox="0 0 29 28" fill="none" xmlns="http://www.w3.org/2000/svg">
<path opacity="0.4" d="M20.1946 0.120056H8.5712C3.51637 0.120056 0.50293 3.13351 0.50293 8.18834V19.8117C0.50293 24.8665 3.51637 27.88 8.5712 27.88H20.1946C25.2494 27.88 28.2629 24.8665 28.2629 19.8117V8.18834C28.2629 3.13351 25.2494 0.120056 20.1946 0.120056Z" fill="#29C2DA"/>
<path d="M21.3202 19.5201C19.501 19.5201 17.7651 18.6868 16.3764 17.1454C17.7513 15.3818 18.64 13.2015 18.8344 10.813H21.3063C21.8757 10.813 22.3478 10.3409 22.3478 9.77151C22.3478 9.20215 21.8757 8.73 21.3063 8.73H17.9318C17.904 8.73 17.8762 8.7161 17.8485 8.7161C17.8207 8.7161 17.7929 8.73 17.7651 8.73H15.4183V7.43849C15.4183 6.86913 14.9461 6.39697 14.3767 6.39697C13.8074 6.39697 13.3352 6.86913 13.3352 7.43849V8.73H7.44725C6.87789 8.73 6.40573 9.20215 6.40573 9.77151C6.40573 10.3409 6.87789 10.813 7.44725 10.813H14.3767H16.7376C16.2238 15.7012 12.252 19.5201 7.41945 19.5201C6.85008 19.5201 6.37793 19.9922 6.37793 20.5616C6.37793 21.1309 6.85008 21.6031 7.41945 21.6031C10.294 21.6031 12.9186 20.4921 14.9322 18.673C16.6958 20.5616 18.9316 21.6031 21.3063 21.6031C21.8757 21.6031 22.3478 21.1309 22.3478 20.5616C22.3478 19.9922 21.8895 19.5201 21.3202 19.5201Z" fill="#29C2DA"/>
</svg>
