<svg width="29" height="28" viewBox="0 0 29 28" fill="none" xmlns="http://www.w3.org/2000/svg">
<path opacity="0.4" d="M10.499 7.34724V20.6389C10.499 25.088 13.271 27.8599 17.7062 27.8599H21.2959C25.7311 27.8599 28.5031 25.0879 28.5031 20.6528V7.34724C28.5169 2.91206 25.7449 0.140076 21.3098 0.140076H17.7062C13.271 0.140076 10.499 2.91206 10.499 7.34724Z" fill="#29C2DA"/>
<path d="M5.74433 8.6224L1.10126 13.2654C0.69932 13.6674 0.69932 14.3327 1.10126 14.7346L5.74433 19.3777C6.14627 19.7796 6.81155 19.7796 7.21349 19.3777C7.61543 18.9757 7.61543 18.3105 7.21349 17.9085L4.34448 15.0395H19.1608C19.7291 15.0395 20.2003 14.5683 20.2003 14C20.2003 13.4318 19.7291 12.9605 19.1608 12.9605H4.34448L7.21349 10.0915C7.42139 9.88365 7.51841 9.62031 7.51841 9.35697C7.51841 9.09363 7.42139 8.81643 7.21349 8.6224C6.81155 8.2066 6.16013 8.2066 5.74433 8.6224Z" fill="#29C2DA"/>
</svg>
