<svg width="21" height="12" viewBox="0 0 21 12" fill="none" xmlns="http://www.w3.org/2000/svg">
<path d="M5.74433 0.622395L1.10126 5.26544C0.69932 5.66738 0.69932 6.33266 1.10126 6.7346L5.74433 11.3777C6.14627 11.7796 6.81155 11.7796 7.21349 11.3777C7.61543 10.9757 7.61543 10.3105 7.21349 9.90852L4.34448 7.03952H19.1608C19.7291 7.03952 20.2003 6.56828 20.2003 6.00002C20.2003 5.43176 19.7291 4.96053 19.1608 4.96053H4.34448L7.21349 2.09155C7.42139 1.88365 7.51841 1.62031 7.51841 1.35697C7.51841 1.09363 7.42139 0.816434 7.21349 0.622395C6.81155 0.206597 6.16013 0.206597 5.74433 0.622395Z" fill="#29C2DA"/>
</svg>
