<svg width="64" height="63" viewBox="0 0 64 63" fill="none" xmlns="http://www.w3.org/2000/svg">
<path d="M29.6728 0.00685372C29.4528 0.0925252 29.231 0.171343 29.0135 0.263868C28.4998 0.478904 28.022 0.762477 27.6812 1.21911C27.4243 1.56779 27.1272 1.91133 26.956 2.30371C26.7847 2.69608 26.7487 3.13386 26.6631 3.55708C26.65 3.70672 26.65 3.85722 26.6631 4.00686C26.2487 3.89805 25.8831 3.78325 25.5089 3.71129C25.2653 3.6775 25.0192 3.66517 24.7734 3.67445C23.8787 3.66631 22.9926 3.84975 22.1747 4.21247C21.6639 4.42403 21.1716 4.67763 20.7028 4.97066C20.3346 5.20969 20.0255 5.5438 19.7052 5.85137C19.1358 6.39881 18.7411 7.07304 18.4012 7.77469C17.8626 8.88842 17.8018 10.0818 17.9465 11.2795C18.0176 11.8792 18.2625 12.4541 18.5527 12.9929C18.9654 13.764 19.5657 14.3577 20.2156 14.924C20.7277 15.3784 21.3241 15.7277 21.9709 15.952C22.4221 16.1045 22.9273 16.1157 23.4111 16.1491C24.0807 16.1962 24.728 16.0985 25.3317 15.7644C26.0792 15.3506 26.6297 14.7955 26.9508 13.9739C27.087 13.6261 27.0921 13.3031 27.1084 12.9612C27.1366 12.3684 26.8866 11.8664 26.5484 11.4072C25.8497 10.4562 24.8761 10.1324 23.751 10.3029C23.1225 10.3988 22.5959 10.7312 22.1747 11.2452C21.9306 11.5339 21.7459 11.8678 21.6309 12.2279C21.5624 12.4438 21.4092 12.4721 21.2756 12.2742C21.0924 12.0026 20.9699 11.6907 20.7893 11.4174C20.5581 11.0679 20.5161 10.6764 20.5101 10.284C20.4981 9.56094 20.767 8.91327 21.1437 8.31356C21.4277 7.8511 21.8073 7.45472 22.2569 7.151C22.9256 6.71065 23.638 6.42793 24.4634 6.39881C25.2587 6.37012 26.0499 6.52551 26.7753 6.85287C27.5061 7.1671 28.1735 7.61218 28.7447 8.16621C29.2173 8.63655 29.6711 9.1086 29.9434 9.72971C30.1438 10.1795 30.4272 10.5976 30.5813 11.0611C30.7564 11.597 30.8775 12.1492 30.9427 12.7094C31.0318 13.3956 31.071 14.0873 31.06 14.7792C31.0354 15.3717 30.9615 15.9612 30.8391 16.5415C30.7115 17.196 30.5454 17.8454 30.3595 18.4862C30.2662 18.8092 30.089 19.1082 29.9571 19.42C29.8158 19.7533 29.7122 20.1054 29.541 20.4207C29.1831 21.0769 28.8012 21.7203 28.4116 22.3577C27.9958 23.0495 27.501 23.6907 26.9371 24.2682C26.3489 24.8602 25.776 25.4676 25.175 26.0467C24.8148 26.3839 24.4378 26.7027 24.0456 27.0019C23.8272 27.1733 23.5772 27.3018 23.3426 27.4509C22.9213 27.7182 22.5077 27.9975 22.0779 28.2493C21.7748 28.4224 21.4624 28.5786 21.142 28.7171C20.7387 28.8979 20.3346 29.0803 19.9176 29.2243C19.3525 29.4196 18.7754 29.5815 18.2051 29.7546C17.5603 29.9491 16.8839 29.9473 16.2357 30.0673C15.7712 30.1627 15.2963 30.1975 14.8229 30.1709C14.2395 30.119 13.6602 30.028 13.089 29.8985C12.5966 29.8059 12.1137 29.6685 11.6462 29.4881C10.8952 29.1946 10.2023 28.77 9.59979 28.2339C9.13062 27.8125 8.71118 27.3388 8.34967 26.822C8.10564 26.4674 7.94466 26.051 7.78369 25.6441C7.63556 25.2722 7.47972 24.8884 7.4292 24.4961C7.38195 24.0048 7.37708 23.5103 7.41464 23.0182C7.42706 22.7866 7.48526 22.5598 7.5859 22.3508C7.80938 21.8959 8.01402 21.4153 8.33168 21.0281C8.65331 20.6342 9.04276 20.3012 9.48163 20.0446C9.87722 19.8167 10.3541 19.6933 10.8105 19.6162C11.4948 19.4993 12.1982 19.6331 12.7919 19.9932C13.0264 20.1482 13.253 20.3149 13.4709 20.4926C13.1969 20.6306 12.9649 20.7496 12.7302 20.8653C12.1454 21.1497 11.7533 21.5986 11.4707 22.1881C11.272 22.6027 11.1624 23.0319 11.2044 23.4603C11.29 24.329 11.6377 25.0709 12.3895 25.6021C13.0145 26.0459 13.6901 26.2335 14.4248 26.1281C15.1594 26.0227 15.7802 25.6338 16.2657 25.0418C16.5733 24.6824 16.7988 24.2602 16.9267 23.8047C17.0834 23.2256 17.1475 22.6253 17.1168 22.0261C17.0843 21.2997 16.7743 20.6768 16.4806 20.0557C16.2999 19.6779 15.9883 19.3583 15.71 19.0336C15.2614 18.4932 14.7194 18.0379 14.1097 17.6895C13.4769 17.3373 12.8338 17.0384 12.0906 17.0041C11.8141 16.9912 11.5375 16.849 11.2652 16.8602C10.5005 16.8812 9.74603 17.0418 9.03895 17.3339C8.55474 17.5313 8.08788 17.7689 7.64326 18.0441C7.30076 18.2669 7.02676 18.6001 6.70824 18.8666C6.18678 19.3035 5.83401 19.8698 5.50949 20.4464C5.20394 20.9667 4.99154 21.5364 4.88186 22.1298C4.79623 22.6096 4.6678 23.091 4.67037 23.5708C4.67037 24.1371 4.80223 24.7017 4.86816 25.268C4.87686 25.4275 4.87686 25.5873 4.86816 25.7469C3.37658 25.6569 2.29513 26.3877 1.45943 27.516C1.00134 28.1337 0.872898 29.4127 1.07669 30.1007C1.34897 29.7683 1.59729 29.3913 1.91667 29.0906C2.48693 28.5526 3.17878 28.4686 3.92714 28.6623C4.46229 28.8088 4.95121 29.0495 5.42815 29.3065C5.94189 29.5781 6.42739 29.8882 6.92915 30.1761C7.16976 30.314 7.41636 30.4425 7.66381 30.5693C8.0183 30.7504 8.3745 30.9286 8.73241 31.1039C8.91394 31.1896 9.09632 31.2752 9.33949 31.3935C8.98586 31.5734 8.6896 31.713 8.40275 31.8715C7.98491 32.1011 7.57819 32.3504 7.16119 32.58C6.80157 32.7788 6.43253 32.9595 6.07033 33.1532C5.61567 33.3956 5.17983 33.6818 4.70633 33.8814C3.84151 34.2455 2.9279 34.4622 2.09134 33.8702C1.71288 33.6012 1.46799 33.1429 1.16317 32.7702C1.14005 32.7419 1.12121 32.7102 1.06641 32.6314C0.852348 33.8677 1.08525 34.918 1.9141 35.8133C2.71898 36.6828 3.71222 37.1163 4.91097 37.0983C4.83134 37.6201 4.75171 38.1264 4.67721 38.6336C4.65421 38.7483 4.64473 38.8653 4.64896 38.9823C4.72003 39.8013 4.74828 40.6289 5.10191 41.3956C5.30827 41.8428 5.45726 42.3269 5.72526 42.7321C6.15339 43.3866 6.62946 44.0215 7.29562 44.4729C7.63812 44.7068 7.95151 44.9938 8.31627 45.1849C8.68103 45.3759 9.13998 45.4419 9.50475 45.6475C9.91232 45.8814 10.3499 45.7846 10.766 45.8805C11.0451 45.9448 11.3534 45.8805 11.6488 45.8728C11.7438 45.8728 11.838 45.836 11.9322 45.8343C12.5838 45.824 13.1729 45.5773 13.7432 45.3125C14.5029 44.9437 15.1746 44.4157 15.7126 43.7644C16.1956 43.2072 16.5877 42.5772 16.8745 41.8977C17.0757 41.417 17.1314 40.9039 17.1759 40.4001C17.2161 39.9959 17.1733 39.5877 17.05 39.2007C16.8308 38.5667 16.5662 37.9268 16.0319 37.4787C15.6192 37.136 15.1757 36.849 14.6166 36.7197C14.0388 36.5777 13.4297 36.6413 12.8938 36.8996C12.2576 37.1855 11.7489 37.6957 11.4647 38.3329C11.3485 38.6085 11.268 38.8978 11.225 39.1939C11.1391 39.6517 11.2215 40.1251 11.457 40.5269C11.6205 40.8313 11.8051 41.1238 12.0093 41.4025C12.1723 41.5971 12.3693 41.7606 12.5907 41.8848C12.8736 42.0324 13.1643 42.1645 13.4615 42.2806C13.1144 42.6398 12.6863 42.9104 12.2131 43.0696C11.6676 43.259 11.1102 43.2316 10.5716 43.1553C10.0454 43.0937 9.55191 42.8677 9.16139 42.5093C8.93705 42.2995 8.6759 42.1247 8.47639 41.8977C8.22434 41.633 8.00499 41.3391 7.82307 41.0221C7.47691 40.3938 7.30848 39.6829 7.33587 38.966C7.36242 38.3774 7.46002 37.8086 7.74858 37.2791C7.95065 36.9073 8.09108 36.5081 8.28716 36.1277C8.57914 35.5571 9.0124 35.0885 9.47734 34.6601C9.83465 34.3315 10.2216 34.0366 10.6333 33.7794C10.9364 33.5892 11.2909 33.4753 11.63 33.3511C11.9862 33.2157 12.3466 33.0898 12.7131 32.9878C13.0361 32.891 13.3671 32.823 13.7021 32.7848C14.3663 32.7078 15.0344 32.6687 15.7031 32.6674C16.2494 32.6785 16.7949 32.7916 17.3369 32.8816C17.827 32.954 18.3129 33.0527 18.7925 33.1772C19.2785 33.3162 19.7558 33.4844 20.2216 33.6809C20.8072 33.9234 21.3903 34.1804 21.9529 34.4725C22.3522 34.6951 22.7377 34.9417 23.1071 35.211C23.626 35.5657 24.1552 35.9084 24.6415 36.3033C25.1441 36.712 25.6091 37.1686 26.0749 37.6192C26.3977 37.9302 26.7068 38.2575 27.0005 38.5959C27.3601 39.008 27.7146 39.4277 28.0391 39.8672C28.3636 40.3067 28.6608 40.7736 28.9485 41.238C29.1051 41.495 29.2165 41.7726 29.3492 42.0407C29.5076 42.3611 29.6917 42.673 29.821 43.0045C30.0659 43.6188 30.303 44.2382 30.506 44.8679C30.687 45.3988 30.8261 45.943 30.9221 46.4957C31.0082 47.1393 31.0606 47.787 31.0788 48.4361C31.1173 49.214 31.0094 49.9782 30.851 50.7415C30.7089 51.4867 30.454 52.2057 30.095 52.8739C29.7593 53.4736 29.374 54.0459 28.8388 54.5299C28.3493 54.9715 27.8166 55.3627 27.2488 55.6976C26.1716 56.3367 25.0011 56.4832 23.7938 56.3239C23.3803 56.2699 22.9864 56.0669 22.6028 55.8407C22.155 55.5863 21.7567 55.2531 21.4272 54.8572C21.1591 54.5105 20.9396 54.1289 20.7747 53.7229C20.5863 53.2945 20.4733 52.8593 20.5135 52.4156C20.5778 51.7088 20.7884 51.038 21.2979 50.5017C21.4451 50.3457 21.5693 50.3594 21.6241 50.5608C21.8527 51.4003 22.4067 51.9538 23.1696 52.3067C23.7861 52.5912 24.4283 52.5698 25.0851 52.4215C25.6057 52.3042 26.0132 52.0043 26.3549 51.6505C26.6117 51.3858 26.7196 50.99 26.9234 50.6713C27.1597 50.3029 27.1135 49.9002 27.1015 49.5053C27.0827 48.8533 26.7821 48.2956 26.3592 47.8381C26.0233 47.4835 25.6348 47.1827 25.2075 46.9463C24.8898 46.7822 24.5418 46.6851 24.1851 46.661C23.6959 46.6056 23.202 46.6076 22.7132 46.667C22.3125 46.7244 21.9229 46.9034 21.5462 47.0671C21.1871 47.2183 20.8431 47.403 20.5187 47.6188C20.2392 47.8204 19.981 48.0501 19.7481 48.3042C19.4181 48.6345 19.1073 48.9835 18.8173 49.3494C18.6347 49.6004 18.4864 49.8747 18.3763 50.165C18.2149 50.566 18.0771 50.9763 17.9636 51.3935C17.9054 51.606 17.9183 51.8381 17.9046 52.0617C17.8506 52.9184 17.8934 53.7666 18.1957 54.5719C18.3584 55.008 18.6152 55.4115 18.8541 55.8159C19.0209 56.116 19.2193 56.3974 19.4458 56.6554C19.7729 57.0101 20.1394 57.3297 20.5016 57.6509C21.0838 58.165 21.7859 58.4828 22.5018 58.7484C22.8443 58.876 23.2279 58.9197 23.5935 58.9926C23.8324 59.0397 24.0755 59.1074 24.3144 59.0988C24.9412 59.0765 25.5671 59.0268 26.1913 58.9669C26.3326 58.9531 26.4653 58.8512 26.598 58.7955C26.6597 59.1733 26.7162 59.5169 26.7693 59.8604C26.8446 60.3299 27.081 60.7291 27.3147 61.1318C27.6572 61.7315 28.171 62.1478 28.7832 62.4451C29.0221 62.5616 29.3303 62.5505 29.5538 62.6884C29.9075 62.9086 30.2731 62.8246 30.6361 62.8315C30.7406 62.8315 30.8468 62.7458 30.9521 62.7047C30.8844 62.6096 30.8382 62.4811 30.7466 62.4254C30.2405 62.1179 29.8475 61.7178 29.6334 61.1575C29.4682 60.724 29.5007 60.2811 29.612 59.8476C29.6944 59.5349 29.805 59.2303 29.9426 58.9377C30.0993 58.595 30.2953 58.2763 30.4734 57.9456C30.7303 57.4745 30.9761 57.0033 31.2304 56.5312C31.4307 56.1611 31.6405 55.7953 31.8374 55.4226C32.0344 55.05 32.227 54.6619 32.4479 54.2284C32.6483 54.5976 32.8427 54.948 33.0302 55.3035C33.2451 55.7113 33.4498 56.1243 33.6647 56.5321C33.8976 56.9741 34.1339 57.4153 34.3771 57.8523C34.6091 58.2695 34.8908 58.6644 35.0809 59.0996C35.3446 59.7053 35.5047 60.3556 35.3583 61.017C35.3027 61.274 35.1263 61.5199 34.9465 61.7195C34.6828 62.0125 34.3651 62.2575 34.0757 62.5282C34.0503 62.5493 34.0296 62.5754 34.0148 62.6049C34.0001 62.6344 33.9916 62.6666 33.99 62.6996C34.0003 62.7518 34.0825 62.8298 34.1296 62.8272C34.5338 62.8058 34.9431 62.9412 35.3412 62.6987C35.5904 62.5471 35.9132 62.5274 36.1889 62.4083C36.7386 62.1812 37.1582 61.7837 37.4938 61.304C37.6753 61.0431 37.8303 60.7647 37.9562 60.473C38.1583 60.0018 38.3312 59.5169 38.2781 58.9866C38.2772 58.9444 38.2818 58.9024 38.2918 58.8615C38.7105 58.924 39.1173 59.0131 39.5274 59.0397C40.0103 59.0714 40.4967 59.0508 40.983 59.0482C41.0567 59.0482 41.1286 59.0148 41.2022 59.0097C41.8761 58.9617 42.4866 58.7184 43.1048 58.4605C43.8512 58.1471 44.5284 57.6891 45.0973 57.1129C45.492 56.7146 45.8962 56.2973 46.1248 55.7559C46.3183 55.3061 46.5889 54.888 46.761 54.4314C46.8925 54.0648 46.9754 53.6826 47.0076 53.2945C47.0496 52.8807 47.0222 52.461 47.0264 52.0437C47.035 51.2256 46.7696 50.4742 46.3646 49.7914C46.047 49.2365 45.6575 48.726 45.2061 48.2733C44.6982 47.7946 44.1247 47.3908 43.503 47.0739C42.6005 46.601 41.656 46.5531 40.7013 46.6713C40.0174 46.7542 39.377 47.051 38.8715 47.5194C38.1822 48.1577 37.7678 48.9399 37.8372 49.9011C37.8928 50.6773 38.2148 51.3181 38.8201 51.8578C39.5557 52.5141 40.3965 52.5946 41.2853 52.4721C41.6586 52.4207 41.9951 52.2039 42.3256 51.9761C42.7461 51.6856 42.961 51.2616 43.2444 50.8803C43.3463 50.7432 43.3523 50.5376 43.4208 50.2935C43.8082 50.6491 44.0982 51.098 44.2633 51.5974C44.4157 52.0206 44.4937 52.4464 44.4157 52.8645C44.3078 53.447 44.1529 54.0305 43.7513 54.5059C43.5946 54.6918 43.4764 54.9137 43.3035 55.0816C43.0517 55.3284 42.7897 55.5845 42.49 55.7567C42.0878 55.986 41.6617 56.1705 41.2194 56.3068C40.9428 56.3924 40.626 56.341 40.328 56.3684C39.5754 56.4266 38.8211 56.2785 38.1463 55.9401C37.4613 55.6128 36.7763 55.2487 36.2326 54.7004C35.8044 54.2721 35.3763 53.8334 35.1075 53.2663C34.8985 52.8251 34.5988 52.425 34.4079 51.9812C34.2644 51.6091 34.1636 51.222 34.1074 50.8272C34.0303 50.3894 34.0782 49.9165 33.931 49.5096C33.7657 49.0521 33.7845 48.6049 33.8171 48.1585C33.8625 47.5314 33.9806 46.9077 34.0868 46.2858C34.159 45.8185 34.2565 45.3555 34.3788 44.8987C34.5155 44.4323 34.6802 43.9746 34.872 43.528C35.1152 42.9514 35.3737 42.3791 35.6606 41.8231C35.8481 41.459 36.0981 41.1283 36.3173 40.7805C36.3935 40.6597 36.4552 40.5295 36.5357 40.4113C37.0391 39.6745 37.5469 38.9437 38.2096 38.3303C38.5787 37.9876 38.8758 37.5695 39.2466 37.2286C39.8065 36.6984 40.4027 36.208 41.031 35.761C41.6192 35.3558 42.1903 34.9326 42.8377 34.6216C43.217 34.44 43.5698 34.2001 43.9568 34.039C44.5639 33.782 45.1872 33.567 45.8089 33.3468C46.2284 33.1994 46.6525 33.0649 47.0812 32.9433C47.3243 32.8697 47.5747 32.8225 47.8279 32.8028C48.7415 32.7488 49.6611 32.6417 50.5679 32.6957C51.3355 32.7388 52.0933 32.8896 52.819 33.1437C53.6898 33.4513 54.4998 33.8488 55.2053 34.4442C55.816 34.9486 56.3308 35.5589 56.7252 36.2459C57.0446 36.8105 57.2287 37.4093 57.4487 38.0082C57.6208 38.5085 57.6638 39.0443 57.5737 39.5657C57.4718 40.2682 57.2518 40.9527 56.78 41.5361C56.476 41.9139 56.1678 42.2549 55.7602 42.5291C55.2593 42.8657 54.7532 43.1476 54.141 43.1776C53.8533 43.1913 53.563 43.1904 53.2745 43.1776C52.7483 43.1474 52.2481 42.9385 51.8565 42.5856C51.7341 42.4811 51.5997 42.3911 51.4661 42.2926C51.8189 42.1144 52.1648 41.967 52.4816 41.7734C53.0673 41.4145 53.4183 40.8936 53.599 40.2151C53.6684 39.9512 53.7703 39.701 53.7429 39.4286C53.6735 38.7646 53.4774 38.1607 53.0228 37.6295C52.4234 36.9304 51.6759 36.6109 50.7965 36.6477C50.0396 36.6794 49.3888 36.9904 48.8271 37.5627C48.4598 37.9345 48.2834 38.3928 48.0043 38.7998C47.91 38.9541 47.8638 39.1331 47.8716 39.3138C47.8835 39.7422 47.6532 40.1568 47.8056 40.6049C47.8981 40.8799 47.9084 41.1832 47.9503 41.4753C48.0205 41.9671 48.286 42.3757 48.5189 42.7955C49.2957 44.1858 50.5871 45.2152 52.1151 45.6621C52.6734 45.8197 53.2283 45.8608 53.7874 45.9071C54.183 45.9396 54.6188 45.9225 54.9861 45.7846C55.5478 45.573 56.166 45.4864 56.6592 45.0924C56.8408 44.9476 57.0951 44.8919 57.2766 44.7497C57.6902 44.4279 58.0802 44.0768 58.4437 43.6993C58.7624 43.3505 59.0413 42.9672 59.2751 42.5565C59.514 42.1427 59.6672 41.6818 59.8745 41.2483C60.211 40.5449 60.2495 39.7816 60.2726 39.0302C60.288 38.5428 60.139 38.0501 60.0697 37.5592C60.0491 37.4145 60.05 37.2663 60.0397 37.0889C60.8848 37.1258 61.6178 36.8653 62.3019 36.4361C62.9861 36.0069 63.5007 35.4252 63.7379 34.6953C64.023 33.812 64.0941 33.3014 63.8586 32.7205C63.5246 33.1009 63.2044 33.513 62.8311 33.8694C62.6411 34.0339 62.4071 34.139 62.1581 34.1718C61.6221 34.2472 61.0843 34.2429 60.574 33.985C60.1176 33.7537 59.6321 33.5789 59.1809 33.3399C58.6851 33.0778 58.2168 32.7634 57.7253 32.4832C57.4461 32.3247 57.149 32.1988 56.863 32.0549C56.4606 31.8458 56.0607 31.6308 55.6061 31.3892C56.0582 31.1707 56.4623 30.9865 56.851 30.7895C57.2398 30.5924 57.6097 30.3834 57.9839 30.1718C58.358 29.9602 58.7322 29.7229 59.115 29.5138C59.5782 29.2611 60.0329 28.9741 60.5252 28.7959C61.1751 28.5595 61.8789 28.4284 62.5297 28.7608C62.952 28.9861 63.3067 29.32 63.5572 29.728C63.6428 29.8634 63.737 29.9936 63.8252 30.1238C64.2071 29.3528 63.7558 27.7841 63.0546 27.0396C62.2386 26.1778 61.2924 25.7152 60.0645 25.7546C60.0555 25.5968 60.0555 25.4386 60.0645 25.2808C60.1322 24.7257 60.276 24.1671 60.2675 23.6171C60.2513 23.0126 60.1651 22.412 60.0106 21.8274C59.8851 21.3421 59.6919 20.8769 59.4369 20.4455C59.1435 19.9667 58.8098 19.5139 58.4394 19.0919C57.9478 18.5284 57.3558 18.0613 56.6935 17.7143C56.0482 17.3622 55.3492 17.1191 54.6248 16.9947C54.2284 16.9236 53.8353 16.8233 53.4432 16.8722C52.9156 16.9456 52.3946 17.0602 51.8848 17.2148C51.2793 17.3752 50.7186 17.6724 50.2459 18.0835C49.8178 18.4785 49.37 18.8683 48.9967 19.3155C48.6927 19.6796 48.4701 20.1174 48.2372 20.5363C47.9931 20.975 47.899 21.4581 47.8091 21.955C47.7286 22.4211 47.7876 22.864 47.8484 23.3086C47.9345 23.8838 48.1662 24.4273 48.5215 24.8876C48.8768 25.3639 49.3101 25.758 49.8683 25.9585C50.3966 26.1478 50.9352 26.2215 51.5175 26.0733C52.1063 25.9206 52.6404 25.6053 53.0587 25.1634C53.2695 24.9508 53.4253 24.69 53.5125 24.4035C53.6256 23.9855 53.8379 23.5742 53.7403 23.1185C53.599 22.4554 53.3875 21.8291 52.8772 21.3451C52.5672 21.0504 52.241 20.7968 51.8026 20.7145C51.6939 20.694 51.6031 20.5783 51.4892 20.4961C51.8394 20.1311 52.2667 19.9049 52.7325 19.7293C53.2402 19.5382 53.766 19.558 54.2737 19.6256C54.7089 19.6767 55.1218 19.8456 55.4682 20.114C55.6677 20.275 55.922 20.371 56.1095 20.5423C56.3373 20.7514 56.5008 21.0281 56.726 21.2405C57.0317 21.5301 57.1542 21.9088 57.3143 22.2763C57.6092 22.9588 57.6933 23.714 57.5557 24.4447C57.4478 25.0264 57.1867 25.5849 56.9487 26.1341C56.6318 26.8674 56.1344 27.4946 55.5744 28.0463C55.0315 28.5987 54.3766 29.0285 53.6538 29.3065C53.1914 29.4779 52.7368 29.6672 52.2727 29.83C52.0571 29.9166 51.829 29.9678 51.5971 29.9816C50.77 29.9816 49.9659 30.3054 49.132 30.1709C48.3756 30.0516 47.6218 29.9188 46.8706 29.7726C46.4576 29.6972 46.0491 29.5988 45.647 29.4779C45.2657 29.3529 44.8918 29.2065 44.5271 29.0392C44.0313 28.819 43.5295 28.6057 43.0586 28.3393C42.3976 27.9658 41.7297 27.5897 41.1243 27.1356C40.2972 26.5153 39.5086 25.8402 38.7379 25.1506C38.3766 24.8267 38.0786 24.4267 37.7815 24.0369C37.3097 23.4217 36.8396 22.8049 36.4115 22.1581C36.0143 21.5674 35.6579 20.9503 35.3446 20.311C35.0312 19.6539 34.7958 18.9583 34.5475 18.272C34.407 17.8839 34.3051 17.4813 34.1947 17.0838C34.1193 16.8105 34.0055 16.5337 34.0029 16.2579C33.9943 15.4012 33.6698 14.5616 33.8102 13.6972C33.9267 12.9827 34.0902 12.2767 34.2144 11.5639C34.324 10.9291 34.6331 10.3808 34.9114 9.81624C35.1811 9.2688 35.5655 8.80789 35.9714 8.35983C36.4783 7.80296 37.0982 7.39174 37.7558 7.05077C38.7217 6.54959 39.7509 6.27972 40.8512 6.43222C41.3724 6.50385 41.8743 6.67859 42.3273 6.94625C42.753 7.18483 43.1352 7.49392 43.4576 7.86036C43.8346 8.31202 44.1136 8.83716 44.277 9.40245C44.3875 9.75627 44.4817 10.1015 44.4192 10.4459C44.3289 10.8782 44.1982 11.301 44.0287 11.7087C43.9499 11.9143 43.7924 12.0917 43.658 12.2724C43.6134 12.3307 43.5184 12.4044 43.4662 12.3915C43.428 12.3758 43.394 12.3516 43.3667 12.3207C43.3394 12.2898 43.3195 12.2531 43.3086 12.2133C43.1519 11.4551 42.6142 10.9548 42.0242 10.5933C41.3863 10.2043 40.638 10.1649 39.8836 10.3637C39.4484 10.4778 39.0484 10.6986 38.72 11.0062C38.3518 11.3489 38.0418 11.7773 37.9545 12.3059C37.9082 12.5869 37.838 12.8713 37.8415 13.1531C37.8484 13.7717 38.0717 14.3682 38.4725 14.8392C39.1858 15.6959 40.0951 16.1191 41.2125 16.1542C42.0319 16.1808 42.83 16.096 43.5449 15.7147C44.1123 15.405 44.6406 15.0285 45.1187 14.5933C45.5592 14.2049 45.9419 13.7555 46.255 13.2585C46.5264 12.8165 46.6317 12.2742 46.8364 11.7875C47.1677 10.9968 47.029 10.1752 47.0033 9.36647C46.9853 8.78304 46.7542 8.23303 46.4964 7.71386C46.2804 7.252 46.0179 6.81338 45.713 6.4048C45.3294 5.91819 44.9124 5.44614 44.3635 5.11459C43.9217 4.84901 43.5073 4.53459 43.056 4.28872C42.7742 4.15304 42.4765 4.05344 42.1698 3.99229C41.8744 3.91947 41.5379 3.95203 41.275 3.82095C40.8298 3.60506 40.3751 3.65732 39.935 3.69073C39.4401 3.72842 38.9529 3.87235 38.4614 3.96831C38.4203 3.97602 38.3758 3.97602 38.3064 3.98116C38.2978 3.88435 38.2841 3.79439 38.2833 3.70358C38.2773 2.82716 37.9254 2.08524 37.4168 1.39045C36.9886 0.806169 36.3893 0.46948 35.7531 0.171343C35.5929 0.104899 35.4291 0.047691 35.2624 0H33.9781C33.9096 0.222746 34.0971 0.275862 34.2195 0.382095C34.5226 0.645107 34.8874 0.872993 35.0997 1.19854C35.5536 1.8942 35.5022 2.66096 35.1682 3.39859C34.9276 3.9289 34.6425 4.44035 34.3745 4.95867C34.1476 5.39816 33.9207 5.83766 33.6895 6.27373C33.4027 6.8126 33.109 7.34633 32.8221 7.88435C32.7048 8.10367 32.5969 8.32813 32.4711 8.58C32.2305 8.12166 32.0232 7.72329 31.8177 7.33006C31.6122 6.93682 31.4059 6.52303 31.1944 6.12209C31.0651 5.87535 30.9238 5.63376 30.7885 5.3896C30.5051 4.87557 30.2071 4.37524 29.9443 3.85436C29.7852 3.56378 29.6715 3.25061 29.6069 2.92568C29.5461 2.53074 29.4999 2.09895 29.5958 1.72114C29.7456 1.13515 30.2148 0.743629 30.6995 0.388092C30.8376 0.270905 30.9667 0.143464 31.0857 0.00685372H29.6728ZM21.5744 31.396C26.6725 29.1463 30.2559 25.4847 32.4693 20.359C34.6639 25.4753 38.249 29.1446 43.3086 31.3763C43.2684 31.4209 43.2487 31.462 43.217 31.474C42.8822 31.6196 42.532 31.7387 42.2135 31.9075C41.7913 32.1294 41.3975 32.4053 40.977 32.6297C40.2871 33.0039 39.6325 33.4401 39.0214 33.9328C38.4425 34.3911 37.8663 34.8563 37.326 35.3575C36.8645 35.7859 36.4475 36.2648 36.0245 36.7334C35.6582 37.1201 35.3132 37.5265 34.991 37.9508C34.5629 38.5428 34.1604 39.1553 33.7923 39.785C33.4677 40.3401 33.204 40.9321 32.9146 41.5079C32.7699 41.794 32.6269 42.0801 32.4557 42.4203C30.2594 37.2868 26.6554 33.6492 21.5744 31.396Z" fill="url(#paint0_linear_1_83)"/>
<defs>
<linearGradient id="paint0_linear_1_83" x1="32.4916" y1="-1.47783" x2="32.4916" y2="68.3016" gradientUnits="userSpaceOnUse">
<stop stop-color="#01BBD6"/>
<stop offset="0.47" stop-color="#90D5E6"/>
<stop offset="1" stop-color="#01BBD6"/>
</linearGradient>
</defs>
</svg>
